<?xml version="1.0" standalone="no"?>
 <!DOCTYPE svg PUBLIC "-//W3C//DTD SVG 1.1//EN" 
 "http://www.w3.org/Graphics/SVG/1.1/DTD/svg11.dtd"> 
<svg
  xmlns:svg="http://www.w3.org/2000/svg"
  xmlns="http://www.w3.org/2000/svg"
  xmlns:xlink="http://www.w3.org/1999/xlink"
  version="1.1"
  width="297.0022mm" height="210.0072mm" viewBox="0.0000 0.0000 297.0022 210.0072">
<title>SVG Image created as Metro-Addon-Edge_Cuts.svg date 2025/06/09 17:19:59 </title>
  <desc>Image generated by PCBNEW </desc>
<g style="fill:#000000; fill-opacity:1.0000;stroke:#000000; stroke-opacity:1.0000;
stroke-linecap:round; stroke-linejoin:round;"
 transform="translate(0 0) scale(1 1)">
</g>
<g style="fill:none; 
stroke:#000000; stroke-width:0.0900; stroke-opacity:1; 
stroke-linecap:round; stroke-linejoin:round;">
<path d="M177.0025,130.7146 C177.0344,130.7661 177.0517,130.7896 177.0644,130.8154" />
<path d="M149.9977,101.5234 C149.1438,101.6348 148.2880,101.7460 147.5034,102.1372" />
<path d="M160.0411,130.5354 C160.9704,130.6413 161.9062,130.6356 162.8379,130.7032" />
<path d="M147.9211,129.5143 C147.7369,129.7700 147.8091,130.1170 148.1054,130.2945" />
<path d="M148.8267,131.5058 C149.2353,131.5576 149.5024,131.3721 149.6094,130.9621" />
<path d="M188.1204 107.2999
L188.1108 107.2972
" />
<path d="M152.3541,128.8881 C152.5108,128.8816 152.5570,128.9374 152.5547,129.0909" />
<path d="M178.5128,131.9319 C178.9110,132.0060 179.3167,132.0116 179.7191,132.0478" />
<path d="M142.8875,128.6912 C143.3462,129.0500 143.8900,129.1871 144.4510,129.2386" />
<path d="M192.6116,110.3177 C192.6116,109.1932 191.6790,108.2180 190.3397,107.9365" />
<path d="M149.6094,130.9621 C149.6982,130.6217 149.6982,130.6217 150.0507,130.6205" />
<path d="M145.4256,104.2614 C144.9742,105.2044 144.7348,106.2191 144.4824,107.2260" />
<path d="M190.5524,129.5388 C190.6376,129.5156 190.7217,129.4887 190.8014,129.4489" />
<path d="M148.2513,130.8009 C148.2603,131.1721 148.4991,131.4642 148.8267,131.5058" />
<path d="M167.2804,132.7970 C167.7015,132.6473 167.9832,132.3283 168.2444,131.9849" />
<path d="M162.8379,130.7032 C163.4108,130.7447 163.9872,130.7378 164.5619,130.7555" />
<path d="M190.5626 129.5482
L190.5524 129.5388
" />
<path d="M190.3397 107.9365
L188.1204 107.2999
" />
<path d="M183.8671,127.5156 C183.9399,127.5243 184.0131,127.5307 184.0862,127.5378" />
<path d="M159.3584,130.4946 C159.5845,130.5571 159.8150,130.5096 160.0411,130.5354" />
<path d="M148.3534,129.0427 C148.4304,129.0497 148.5914,129.0200 148.5859,129.1815" />
<path d="M168.8876,131.0854 C169.0470,131.1091 169.2108,131.1062 169.3728,131.1078" />
<path d="M168.7183,131.1864 C168.7578,131.1230 168.7863,131.0703 168.8876,131.0854" />
<path d="M150.6925,129.2405 C150.6998,129.1332 150.6379,128.9740 150.7425,128.9308" />
<path d="M171.0528,133.3118 C171.8314,133.8846 172.7284,133.9655 173.6493,133.8888" />
<path d="M164.9318,130.9567 C165.0011,131.3589 165.1345,131.7411 165.3682,132.0821" />
<path d="M150.7425,128.9308 C150.9059,128.8633 151.0755,128.7426 151.2592,128.7818" />
<path d="M188.1108 107.2972
L188.1108 107.2896
" />
<path d="M146.4631,129.2904 C146.8303,129.2843 147.1570,129.1711 147.4346,128.9293" />
<path d="M186.0817,106.6057 C185.0100,106.2565 183.9377,105.9088 182.8614,105.5742" />
<path d="M153.7866,101.1239 C153.2373,101.1670 152.6873,101.2056 152.1395,101.2643" />
<path d="M192.6116 121.2692
L192.6116 110.3177
" />
<path d="M183.4988,129.3003 C183.6307,128.7908 183.6652,128.2694 183.6550,127.7496" />
<path d="M148.3245,129.3308 C148.1547,129.3181 148.0194,129.3777 147.9211,129.5143" />
<path d="M164.7571,130.7874 C164.8726,130.7904 164.9109,130.8348 164.9318,130.9567" />
<path d="M159.2104,130.6247 C159.2367,130.5542 159.2639,130.4686 159.3584,130.4946" />
<path d="M148.2520,130.5793 C148.2454,130.6526 148.2495,130.7271 148.2513,130.8009" />
<path d="M182.5116,131.3557 C183.0105,130.7551 183.3045,130.0510 183.4988,129.3003" />
<path d="M147.6495,128.8732 C147.8725,128.9758 148.1083,129.0206 148.3534,129.0427" />
<path d="M150.1172,130.6204 C150.4026,130.6132 150.5825,130.4661 150.6521,130.1885" />
<path d="M176.7225,131.4358 C176.8194,131.2054 176.9039,130.9698 177.0025,130.7146" />
<path d="M143.7716,110.5458 C143.5845,111.5268 143.4127,112.5108 143.2405,113.4946" />
<path d="M142.8163,115.9692 C142.8025,116.0462 141.3554,124.4830 142.0085,127.6454" />
<path d="M150.6521,130.1885 C150.7306,129.8749 150.6712,129.5560 150.6925,129.2405" />
<path d="M148.5859,129.1815 C148.5799,129.3547 148.4427,129.3396 148.3245,129.3308" />
<path d="M158.3537,131.9277 C158.7218,131.5526 159.0242,131.1244 159.2104,130.6247" />
<path d="M186.7829,127.2422 C186.8237,127.5574 186.8917,127.8706 186.9939,128.1795" />
<path d="M192.4129,125.1455 C192.3115,124.3683 192.0209,123.7795 191.5245,123.3457" />
<path d="M147.4346,128.9293 C147.5007,128.8716 147.5570,128.8306 147.6495,128.8732" />
<path d="M184.0862,127.5378 C184.4021,127.5688 184.7179,127.5832 185.0332,127.5312" />
<path d="M143.2405,113.4946 C143.0962,114.3190 142.9645,115.1456 142.8163,115.9692" />
<path d="M181.2122,132.0871 C181.7385,131.9999 182.1755,131.7604 182.5116,131.3557" />
<path d="M191.5245,123.3457 C191.4804,123.3072 191.4352,123.2781 191.3905,123.2445" />
<path d="M183.6550,127.7496 C183.6511,127.5500 183.6829,127.4934 183.8671,127.5156" />
<path d="M163.9403,100.7364 C162.6196,100.7235 161.2984,100.6965 159.9766,100.7586" />
<path d="M157.6368,100.8555 C157.3054,100.8655 156.9749,100.8930 156.6445,100.9117" />
<path d="M179.7191,132.0478 C180.2164,132.0924 180.7093,132.1704 181.2122,132.0871" />
<path d="M165.3682,132.0821 C165.8459,132.7792 166.5659,133.0510 167.2804,132.7970" />
<path d="M156.7167,132.7889 C157.3540,132.6861 157.9040,132.3859 158.3537,131.9277" />
<path d="M173.6493,133.8888 C174.0355,133.8566 174.4216,133.7826 174.7793,133.6095" />
<path d="M152.5547,129.0909 C152.5437,129.8074 152.6720,130.4933 152.9844,131.1467" />
<path d="M169.7623,101.5625 C168.5967,101.1695 167.4213,100.8747 166.1921,100.8175" />
<path d="M188.1108,107.2896 C187.4346,107.0611 186.7603,106.8268 186.0817,106.6057" />
<path d="M144.4824,107.2260 C144.2072,108.3238 143.9837,109.4341 143.7716,110.5458" />
<path d="M154.3952,132.5487 C155.1356,132.8685 155.9244,132.9167 156.7167,132.7889" />
<path d="M182.8614,105.5742 C181.7289,105.2222 180.6074,104.8363 179.4664,104.5101" />
<path d="M188.9357,129.7864 C189.0510,129.7864 189.1701,129.7765 189.2896,129.7569" />
<path d="M144.4510,129.2386 C145.1192,129.3001 145.7916,129.3016 146.4631,129.2904" />
<path d="M156.6445,100.9117 C155.6909,100.9654 154.7390,101.0491 153.7866,101.1239" />
<path d="M168.2444,131.9849 C168.4334,131.7365 168.5546,131.4492 168.7183,131.1864" />
<path d="M148.1054,130.2945 C148.2300,130.3691 148.2637,130.4509 148.2520,130.5793" />
<path d="M173.7814,102.7717 C172.4417,102.3682 171.0873,102.0091 169.7623,101.5625" />
<path d="M186.9939,128.1795 C187.3319,129.2007 188.0397,129.7864 188.9357,129.7864" />
<path d="M150.0507,130.6205 C150.0729,130.6205 150.0951,130.6210 150.1172,130.6204" />
<path d="M191.3905,123.2445 C192.1372,122.7960 192.6116,122.0791 192.6116,121.2692" />
<path d="M152.9844,131.1467 C153.2902,131.7866 153.7531,132.2713 154.3952,132.5487" />
<path d="M164.5619,130.7555 C164.6272,130.7575 164.6918,130.7857 164.7571,130.7874" />
<path d="M192.0841,128.0392 C192.4456,127.1665 192.5531,126.2199 192.4129,125.1455" />
<path d="M185.0332,127.5312 C185.6055,127.4368 186.1787,127.3479 186.7499,127.2475" />
<path d="M142.7080,128.6235 C142.7798,128.6147 142.8323,128.6481 142.8875,128.6912" />
<path d="M189.2896 129.7569
L190.5626 129.5482
" />
<path d="M176.3581,103.5666 C175.4988,103.3031 174.6421,103.0309 173.7814,102.7717" />
<path d="M147.5034,102.1372 C146.5663,102.6045 145.8760,103.3208 145.4256,104.2614" />
<path d="M166.1921,100.8175 C165.4418,100.7826 164.6902,100.7438 163.9403,100.7364" />
<path d="M169.8510,131.4782 C170.0584,132.2146 170.4265,132.8512 171.0528,133.3118" />
<path d="M152.1395,101.2643 C151.4245,101.3409 150.7108,101.4303 149.9977,101.5234" />
<path d="M151.2592,128.7818 C151.6216,128.8592 151.9851,128.9035 152.3541,128.8881" />
<path d="M174.7793,133.6095 C175.7261,133.1514 176.3243,132.3826 176.7225,131.4358" />
<path d="M177.0644,130.8154 C177.3630,131.4267 177.8416,131.8070 178.5128,131.9319" />
<path d="M159.9766,100.7586 C159.1972,100.7952 158.4170,100.8320 157.6368,100.8555" />
<path d="M186.7499,127.2475 C186.7590,127.2459 186.7725,127.2439 186.7829,127.2422" />
<path d="M190.8014,129.4489 C191.3861,129.1568 191.8176,128.6825 192.0841,128.0392" />
<path d="M179.4664,104.5101 C178.4255,104.2124 177.3934,103.8840 176.3581,103.5666" />
<path d="M169.3728,131.1078 C169.7549,131.1117 169.7478,131.1120 169.8510,131.4782" />
<path d="M142.0085,127.6454 C142.1616,128.2501 142.5014,128.5431 142.7080,128.6235" />
</g> 
</svg>
