<?xml version="1.0" standalone="no"?>
 <!DOCTYPE svg PUBLIC "-//W3C//DTD SVG 1.1//EN" 
 "http://www.w3.org/Graphics/SVG/1.1/DTD/svg11.dtd"> 
<svg
  xmlns:svg="http://www.w3.org/2000/svg"
  xmlns="http://www.w3.org/2000/svg"
  xmlns:xlink="http://www.w3.org/1999/xlink"
  version="1.1"
  width="297.0022mm" height="210.0072mm" viewBox="0.0000 0.0000 297.0022 210.0072">
<title>SVG Image created as Metro-Addon-F_Silkscreen.svg date 2025/06/09 17:19:59 </title>
  <desc>Image generated by PCBNEW </desc>
<g style="fill:#000000; fill-opacity:1.0000;stroke:#000000; stroke-opacity:1.0000;
stroke-linecap:round; stroke-linejoin:round;"
 transform="translate(0 0) scale(1 1)">
</g>
<g style="fill:none; 
stroke:#000000; stroke-width:0.1500; stroke-opacity:1; 
stroke-linecap:round; stroke-linejoin:round;">
<text x="145.2100" y="117.9700"
textLength="2.2024" font-size="1.3333" lengthAdjust="spacingAndGlyphs"
text-anchor="middle" opacity="0" stroke-opacity="0">D2</text>
<g class="stroked-text"><desc>D2</desc>
<path d="M144.4719 117.9248
L144.4719 116.9248
" />
<path d="M144.4719 116.9248
L144.7100 116.9248
" />
<path d="M144.7100 116.9248
L144.8529 116.9724
" />
<path d="M144.8529 116.9724
L144.9481 117.0677
" />
<path d="M144.9481 117.0677
L144.9957 117.1629
" />
<path d="M144.9957 117.1629
L145.0433 117.3534
" />
<path d="M145.0433 117.3534
L145.0433 117.4962
" />
<path d="M145.0433 117.4962
L144.9957 117.6867
" />
<path d="M144.9957 117.6867
L144.9481 117.7820
" />
<path d="M144.9481 117.7820
L144.8529 117.8772
" />
<path d="M144.8529 117.8772
L144.7100 117.9248
" />
<path d="M144.7100 117.9248
L144.4719 117.9248
" />
<path d="M145.4243 117.0201
L145.4719 116.9724
" />
<path d="M145.4719 116.9724
L145.5671 116.9248
" />
<path d="M145.5671 116.9248
L145.8052 116.9248
" />
<path d="M145.8052 116.9248
L145.9005 116.9724
" />
<path d="M145.9005 116.9724
L145.9481 117.0201
" />
<path d="M145.9481 117.0201
L145.9957 117.1153
" />
<path d="M145.9957 117.1153
L145.9957 117.2105
" />
<path d="M145.9957 117.2105
L145.9481 117.3534
" />
<path d="M145.9481 117.3534
L145.3767 117.9248
" />
<path d="M145.3767 117.9248
L145.9957 117.9248
" />
</g><g transform="rotate(-90.000000 190.1800 114.3100)">
<text x="190.1800" y="114.8100"
textLength="2.2024" font-size="1.3333" lengthAdjust="spacingAndGlyphs"
text-anchor="middle" opacity="0" stroke-opacity="0">D5</text>
</g>
<g class="stroked-text"><desc>D5</desc>
<path d="M190.6348 115.0481
L189.6348 115.0481
" />
<path d="M189.6348 115.0481
L189.6348 114.8100
" />
<path d="M189.6348 114.8100
L189.6824 114.6671
" />
<path d="M189.6824 114.6671
L189.7777 114.5719
" />
<path d="M189.7777 114.5719
L189.8729 114.5243
" />
<path d="M189.8729 114.5243
L190.0634 114.4767
" />
<path d="M190.0634 114.4767
L190.2062 114.4767
" />
<path d="M190.2062 114.4767
L190.3967 114.5243
" />
<path d="M190.3967 114.5243
L190.4920 114.5719
" />
<path d="M190.4920 114.5719
L190.5872 114.6671
" />
<path d="M190.5872 114.6671
L190.6348 114.8100
" />
<path d="M190.6348 114.8100
L190.6348 115.0481
" />
<path d="M189.6348 113.5719
L189.6348 114.0481
" />
<path d="M189.6348 114.0481
L190.1110 114.0957
" />
<path d="M190.1110 114.0957
L190.0634 114.0481
" />
<path d="M190.0634 114.0481
L190.0158 113.9529
" />
<path d="M190.0158 113.9529
L190.0158 113.7148
" />
<path d="M190.0158 113.7148
L190.0634 113.6195
" />
<path d="M190.0634 113.6195
L190.1110 113.5719
" />
<path d="M190.1110 113.5719
L190.2062 113.5243
" />
<path d="M190.2062 113.5243
L190.4443 113.5243
" />
<path d="M190.4443 113.5243
L190.5396 113.5719
" />
<path d="M190.5396 113.5719
L190.5872 113.6195
" />
<path d="M190.5872 113.6195
L190.6348 113.7148
" />
<path d="M190.6348 113.7148
L190.6348 113.9529
" />
<path d="M190.6348 113.9529
L190.5872 114.0481
" />
<path d="M190.5872 114.0481
L190.5396 114.0957
" />
</g><g transform="rotate(-90.000000 168.6400 110.9900)">
<text x="168.6400" y="111.4900"
textLength="2.2024" font-size="1.3333" lengthAdjust="spacingAndGlyphs"
text-anchor="middle" opacity="0" stroke-opacity="0">D4</text>
</g>
<g class="stroked-text"><desc>D4</desc>
<path d="M169.0948 111.7281
L168.0948 111.7281
" />
<path d="M168.0948 111.7281
L168.0948 111.4900
" />
<path d="M168.0948 111.4900
L168.1424 111.3471
" />
<path d="M168.1424 111.3471
L168.2377 111.2519
" />
<path d="M168.2377 111.2519
L168.3329 111.2043
" />
<path d="M168.3329 111.2043
L168.5234 111.1567
" />
<path d="M168.5234 111.1567
L168.6662 111.1567
" />
<path d="M168.6662 111.1567
L168.8567 111.2043
" />
<path d="M168.8567 111.2043
L168.9520 111.2519
" />
<path d="M168.9520 111.2519
L169.0472 111.3471
" />
<path d="M169.0472 111.3471
L169.0948 111.4900
" />
<path d="M169.0948 111.4900
L169.0948 111.7281
" />
<path d="M168.4282 110.2995
L169.0948 110.2995
" />
<path d="M168.0472 110.5376
L168.7615 110.7757
" />
<path d="M168.7615 110.7757
L168.7615 110.1567
" />
</g><g transform="rotate(-90.000000 181.9000 113.1000)">
<text x="181.9000" y="113.6000"
textLength="2.2024" font-size="1.3333" lengthAdjust="spacingAndGlyphs"
text-anchor="middle" opacity="0" stroke-opacity="0">D3</text>
</g>
<g class="stroked-text"><desc>D3</desc>
<path d="M182.3548 113.8381
L181.3548 113.8381
" />
<path d="M181.3548 113.8381
L181.3548 113.6000
" />
<path d="M181.3548 113.6000
L181.4024 113.4571
" />
<path d="M181.4024 113.4571
L181.4977 113.3619
" />
<path d="M181.4977 113.3619
L181.5929 113.3143
" />
<path d="M181.5929 113.3143
L181.7834 113.2667
" />
<path d="M181.7834 113.2667
L181.9262 113.2667
" />
<path d="M181.9262 113.2667
L182.1167 113.3143
" />
<path d="M182.1167 113.3143
L182.2120 113.3619
" />
<path d="M182.2120 113.3619
L182.3072 113.4571
" />
<path d="M182.3072 113.4571
L182.3548 113.6000
" />
<path d="M182.3548 113.6000
L182.3548 113.8381
" />
<path d="M181.3548 112.9333
L181.3548 112.3143
" />
<path d="M181.3548 112.3143
L181.7358 112.6476
" />
<path d="M181.7358 112.6476
L181.7358 112.5048
" />
<path d="M181.7358 112.5048
L181.7834 112.4095
" />
<path d="M181.7834 112.4095
L181.8310 112.3619
" />
<path d="M181.8310 112.3619
L181.9262 112.3143
" />
<path d="M181.9262 112.3143
L182.1643 112.3143
" />
<path d="M182.1643 112.3143
L182.2596 112.3619
" />
<path d="M182.2596 112.3619
L182.3072 112.4095
" />
<path d="M182.3072 112.4095
L182.3548 112.5048
" />
<path d="M182.3548 112.5048
L182.3548 112.7905
" />
<path d="M182.3548 112.7905
L182.3072 112.8857
" />
<path d="M182.3072 112.8857
L182.2596 112.9333
" />
</g><text x="158.4200" y="117.9700"
textLength="2.2024" font-size="1.3333" lengthAdjust="spacingAndGlyphs"
text-anchor="middle" opacity="0" stroke-opacity="0">D1</text>
<g class="stroked-text"><desc>D1</desc>
<path d="M157.6819 117.9248
L157.6819 116.9248
" />
<path d="M157.6819 116.9248
L157.9200 116.9248
" />
<path d="M157.9200 116.9248
L158.0629 116.9724
" />
<path d="M158.0629 116.9724
L158.1581 117.0677
" />
<path d="M158.1581 117.0677
L158.2057 117.1629
" />
<path d="M158.2057 117.1629
L158.2533 117.3534
" />
<path d="M158.2533 117.3534
L158.2533 117.4962
" />
<path d="M158.2533 117.4962
L158.2057 117.6867
" />
<path d="M158.2057 117.6867
L158.1581 117.7820
" />
<path d="M158.1581 117.7820
L158.0629 117.8772
" />
<path d="M158.0629 117.8772
L157.9200 117.9248
" />
<path d="M157.9200 117.9248
L157.6819 117.9248
" />
<path d="M159.2057 117.9248
L158.6343 117.9248
" />
<path d="M158.9200 117.9248
L158.9200 116.9248
" />
<path d="M158.9200 116.9248
L158.8248 117.0677
" />
<path d="M158.8248 117.0677
L158.7295 117.1629
" />
<path d="M158.7295 117.1629
L158.6343 117.2105
" />
</g></g>
<g style="fill:none; 
stroke:#000000; stroke-width:0.1200; stroke-opacity:1; 
stroke-linecap:round; stroke-linejoin:round;">
<path d="M143.5250 118.1600
L143.5250 120.0800
" />
<path d="M143.5250 120.0800
L146.2100 120.0800
" />
<path d="M146.2100 118.1600
L143.5250 118.1600
" />
<path d="M187.5700 112.6250
L187.5700 115.3100
" />
<path d="M189.4900 112.6250
L187.5700 112.6250
" />
<path d="M189.4900 115.3100
L189.4900 112.6250
" />
<path d="M166.0300 109.3050
L166.0300 111.9900
" />
<path d="M167.9500 109.3050
L166.0300 109.3050
" />
<path d="M167.9500 111.9900
L167.9500 109.3050
" />
<path d="M182.5900 112.1000
L182.5900 114.7850
" />
<path d="M182.5900 114.7850
L184.5100 114.7850
" />
<path d="M184.5100 114.7850
L184.5100 112.1000
" />
<path d="M156.7350 118.1600
L156.7350 120.0800
" />
<path d="M156.7350 120.0800
L159.4200 120.0800
" />
<path d="M159.4200 118.1600
L156.7350 118.1600
" />
</g> 
</svg>
