M48
; DRILL file {KiCad 9.0.2} date 2025-06-09T17:19:55-0600
; FORMAT={-:-/ absolute / metric / decimal}
; #@! TF.CreationDate,2025-06-09T17:19:55-06:00
; #@! TF.GenerationSoftware,Kicad,Pcbnew,9.0.2
; #@! TF.FileFunction,Plated,1,2,PTH
FMAT,2
METRIC
; #@! TA.AperFunction,Plated,PTH,ViaDrill
T1C0.300
%
G90
G05
T1
X144.297Y-119.12
X144.79Y-117.31
X145.12Y-121.42
X146.886Y-115.624
X147.0Y-104.0
X147.0Y-105.0
X147.45Y-109.29
X147.45Y-110.29
X148.0Y-104.0
X148.0Y-105.0
X148.45Y-109.29
X148.45Y-110.29
X152.16Y-116.59
X153.09Y-117.46
X153.44Y-107.79
X155.33Y-122.21
X162.0Y-128.0
X162.0Y-129.0
X162.19Y-121.95
X163.0Y-128.0
X163.0Y-129.0
X164.91Y-108.32
X166.91Y-105.2
X183.55Y-114.037
X184.99Y-122.08
X186.02Y-112.85
X189.0Y-126.0
X189.0Y-127.0
X190.0Y-126.0
X190.0Y-127.0
M30
